<?xml version="1.0" encoding="utf-8"?>
<!-- Generator: Adobe Illustrator 23.0.6, SVG Export Plug-In . SVG Version: 6.00 Build 0)  -->
<svg version="1.1" id="Слой_1" xmlns="http://www.w3.org/2000/svg" xmlns:xlink="http://www.w3.org/1999/xlink" x="0px" y="0px"
	 width="466.7px" height="500px" viewBox="0 0 466.7 500" enable-background="new 0 0 466.7 500" xml:space="preserve">
<g>
	<path fill-rule="evenodd" clip-rule="evenodd" fill="#2E2D42" d="M275.2,475c0.4,2.2,0.9,4.1,1.4,5.8h-86.9c0.5-1.7,1-3.5,1.4-5.8
		c1.4-7.3,1.3-17.7,1.2-27.8c0-1.9,0-3.8-0.1-5.8h81.8l-0.1,6.1C273.9,457.5,273.7,467.7,275.2,475L275.2,475z M448.3,422.2h-427
		c-1.8,0-5.2-3.6-5.2-5.9V388h434.3v29C450.5,420,449,422.3,448.3,422.2L448.3,422.2z M469.6,368.5V113.1c0-12.1-9.9-22-22.1-22
		h-63.9V74.7h-19.2V342h19.2V110.3h63.9c1.6,0,2.8,1.3,2.8,2.8v255.6H16.1V113.1c0-1.5,1.2-2.8,2.8-2.8h64.7v231.8h19.2V19.3h206.1
		V0H83.6v91.1H18.9c-12.1,0-22,9.9-22,22V388h0v28.4c0,12.9,11.9,25.1,24.5,25.1H173l0.1,6c0.1,3.8,0.1,8,0.1,12
		c0,3.9-0.3,7.9-0.8,11.8c-0.3,1.6-0.7,3.2-1.2,4.8c-0.5,0.3-1,0.5-1.5,0.9l-0.7,0.4c-2.4,1.2-4.8,2.4-7.3,3.5h-12.1V500h167.8
		v-19.3h-12.8c-2.6-1.2-5.1-2.4-7.6-3.7c-0.6-0.3-1.1-0.6-1.5-0.8c-0.5-1.6-0.9-3.3-1.2-4.9c-0.6-3.7-0.9-7.4-0.8-11.2
		c-0.1-4,0-8.4,0-12.3l0.1-6.3h155c13.4,0,21.3-12.5,21.3-24.5v-48.5H469.6z"/>
	<path fill-rule="evenodd" clip-rule="evenodd" fill="#FEFEFE" d="M42,342h41.6V136.8H42V342z M383.6,342H424V136.8h-40.4V342z
		 M308.9,74.7H383L308.9,0.6v18.7V74.7z"/>
	<path fill-rule="evenodd" clip-rule="evenodd" fill="#2E2D42" d="M320.8,110.3V91.2H186v19.2H320.8z M186,140.4h134.8v-19.2H186
		V140.4z M135.9,108.9l-10.4,16.1l21,13.6l26.3-32.9l-6.3-5l-8.8-7l-5.6,7l-9.9,12.4L135.9,108.9z M186,200h134.8v-19.2H186V200z
		 M186,230.1h134.8v-19.2H186V230.1z M172.8,195.4l-15-12l-15.4,19.4l-6.4-4.2l-10.4,16.2l21.1,13.6L172.8,195.4z M186,289.7h134.8
		v-19.2H186V289.7z M186,319.7h134.8v-19.2H186V319.7z M172.8,285l-15-12l-15.4,19.3l-6.4-4.2l-10.4,16.2l21.1,13.6L172.8,285z"/>
</g>
</svg>
