<?xml version="1.0" encoding="utf-8"?>
<!-- Generator: Adobe Illustrator 23.0.6, SVG Export Plug-In . SVG Version: 6.00 Build 0)  -->
<svg version="1.1" id="Слой_1" xmlns="http://www.w3.org/2000/svg" xmlns:xlink="http://www.w3.org/1999/xlink" x="0px" y="0px"
	 width="140px" height="30px" viewBox="0 0 140 30" enable-background="new 0 0 140 30" xml:space="preserve">
<g>
	<path fill-rule="evenodd" clip-rule="evenodd" fill="#2D2D42" d="M35.8,24.1h2v-8h6.7l0.2-1.8h-6.8V8h8.3V6.2H35.8V24.1z M50.3,13
		c-0.2-0.8-0.4-1.6-0.6-2.3l-1.6,0.4c0.4,1.4,0.5,3,0.5,4.6v8.4h1.9v-8.6c0.7-1.9,2-2.8,4.1-2.8l-0.3-2C52.2,10.8,51,11.6,50.3,13
		 M62.4,22.8c-3.3,0-3.8-2-3.8-5.3c0-3.3,0.6-5.3,3.8-5.3s3.8,2,3.8,5.3C66.2,20.8,65.7,22.8,62.4,22.8 M62.4,10.6
		c-4.1,0-5.7,2.2-5.7,6.9c0,4.7,1.6,6.9,5.7,6.9c4.1,0,5.7-2.2,5.7-6.9C68.1,12.8,66.5,10.6,62.4,10.6 M77.7,10.6
		c-2.2,0-3.5,0.7-4.3,2.1c-0.1-0.7-0.3-1.3-0.5-2l-1.6,0.4c0.4,1.4,0.5,3,0.5,4.6v8.4h1.9v-9.2c0.8-1.7,1.8-2.7,3.7-2.7
		c2.8,0,2.9,1.8,2.9,4.7v7.2h1.9v-7.5C82.2,13.4,81.5,10.6,77.7,10.6 M89,6.7l-1.9,0.3v4h-2.2v1.6h2.2v5.2c0,2.9,0.2,5,2.3,6.7
		l1.3-1.1C89,21.8,89,20.5,89,18.3v-5.8h2.8l0.2-1.6H89V6.7z M99.9,22.8c-1.1,0-2.3,0-3.3-0.5v-7.5c0.8-1.7,1.8-2.7,3.7-2.7
		c2.6,0,3.1,2,3.1,5.3C103.4,21.7,102.1,22.8,99.9,22.8 M100.6,10.6c-2,0-3.3,0.6-4,1.9V5.8L94.7,6v17.5c1.6,0.6,3.4,0.8,5.2,0.8
		c3,0,5.5-1.3,5.5-6.9C105.3,12.9,103.9,10.6,100.6,10.6 M112.7,22.3l-3.5-11.5l-2,0.4l4.4,12.7c-0.3,1.4-1,2.3-2.8,3.2l0.8,1.3
		c2.5-1,3.7-3.1,4.6-5.7l3.9-11.6l-1.8-0.4C116.2,10.8,112.7,22.3,112.7,22.3z M123.8,6.7l-1.9,0.3v4h-2.2v1.6h2.2v5.2
		c0,2.9,0.2,5,2.3,6.7l1.3-1.1c-1.6-1.6-1.7-2.8-1.7-5.1v-5.8h2.8l0.2-1.6h-2.9C123.8,10.9,123.8,6.7,123.8,6.7z M130.6,17.3V17
		c0-3.5,1.4-4.8,3.6-4.8c2.1,0,3.3,1.1,3.4,4.4L130.6,17.3z M139.4,17.8c0-5.6-1.9-7.2-5.2-7.2c-2.9,0-5.5,1.2-5.5,6.9
		c0,5.4,2.3,6.9,5.7,6.9c1.6,0,3.1-0.3,4.4-1.2l-0.7-1.5c-1.2,0.7-2.4,1-3.7,1c-2.3,0-3.7-0.9-3.8-4l8.8-0.7V17.8z M15,0
		C6.7,0,0,6.7,0,15c0,8.3,6.7,15,15,15c8.3,0,15-6.7,15-15C30,6.7,23.3,0,15,0"/>
	<path fill-rule="evenodd" clip-rule="evenodd" fill="#64CAE1" d="M11,9h2.5l1.3,2.2l-1.3,2.2H11l-1.3-2.2L11,9z M13.5,24.2H11
		L9.7,22l1.3-2.2h2.5l1.3,2.2L13.5,24.2z M13.5,18.8H11l-1.3-2.2l1.3-2.2h2.5l1.3,2.2L13.5,18.8z M18.3,16.1h-2.5l-1.3-2.2l1.3-2.2
		h2.5l1.3,2.2L18.3,16.1z M18.3,10.6h-2.5l-1.3-2.2l1.3-2.2h2.5l1.3,2.2L18.3,10.6L18.3,10.6z"/>
</g>
</svg>
