<?xml version="1.0" encoding="utf-8"?>
<!-- Generator: Adobe Illustrator 23.0.6, SVG Export Plug-In . SVG Version: 6.00 Build 0)  -->
<svg version="1.1" id="Слой_1" xmlns="http://www.w3.org/2000/svg" xmlns:xlink="http://www.w3.org/1999/xlink" x="0px" y="0px"
	 width="2333.3px" height="500px" viewBox="0 0 2333.3 500" enable-background="new 0 0 2333.3 500" xml:space="preserve">
<g>
	<path fill-rule="evenodd" clip-rule="evenodd" fill="#64CAE1" d="M601.5,401h32.8V267.3h111l3-29.7H634.3V133.5h139v-29.6H601.5
		V401z M841.8,217.2c-2.6-13.2-6-26.4-10.3-37.8l-26.4,5.9c5.9,23.3,7.6,49.7,7.6,76V401h31.5V257.5c12.3-31.4,32.8-46.3,67.6-46.6
		l-4.3-34C873.7,179.4,853.6,193,841.8,217.2 M1044.2,379.4c-54.5,0-63.8-33.1-63.8-87.8c0-54.8,9.3-87.9,63.8-87.9
		c54.5,0,63.8,33.2,63.8,87.9C1108,346.3,1098.7,379.4,1044.2,379.4 M1044.2,176.9c-68.5,0-95.7,36.5-95.7,114.7
		c0,78.1,27.2,114.6,95.7,114.6c68.4,0,95.7-36.6,95.7-114.7C1139.9,213.4,1112.7,176.9,1044.2,176.9 M1299.7,176.9
		c-36.1,0-58.3,12.3-71.4,35.3c-2.1-11.1-5.1-22-9-32.7l-26.3,5.9c6,23.3,7.7,49.7,7.7,76v139.7h31.4V247.4
		c14.1-28.1,29.7-44.3,61.7-44.3c45.9,0,48.5,30.2,48.5,78.2v119.7h31.5V275.4C1373.8,224,1363.1,176.9,1299.7,176.9 M1487.7,111
		l-31.5,4.4v66.6h-37.4v26.7h37.4v87.5c0,48,2.6,83.2,37.8,111.3l21.3-17.8c-27.2-25.9-27.7-47.2-27.7-84.5v-96.5h46l3-26.7h-48.9
		V111z M1669.7,379.4c-19,0-39.1-0.8-55.7-7.6V247.4c14-28.1,29.8-44.2,61.7-44.2c42.9,0,52.2,33.9,52.2,88.3
		C1727.9,362,1705.9,379.4,1669.7,379.4 M1680.8,176.9c-33.2,0-54.4,10.6-66.8,31.8V96.2l-31.5,4.3v292.1
		c26.3,10.2,56.1,13.6,85.9,13.6c50.2,0,91.4-22.2,91.4-114.7C1759.9,215.5,1736.1,176.8,1680.8,176.9 M1882.8,370.9L1825,179.4
		l-33.7,6.3l72.8,211.5c-5.1,22.5-17,38.3-47.2,53.5l13.7,22.1c41.2-16.6,61.7-51.4,76.1-94.7l65.1-192.8l-30.6-5.9
		C1941,179.4,1882.8,370.9,1882.8,370.9z M2067.8,111l-31.5,4.4v66.6h-37.4v26.7h37.4v87.5c0,48,2.6,83.2,37.9,111.3l21.3-17.8
		c-27.3-25.9-27.6-47.2-27.6-84.5v-96.5h45.9l3-26.7h-48.9C2067.8,181.9,2067.8,111,2067.8,111z M2181.3,287.7V283
		c0-59,22.9-79.4,59.9-79.4c34.4,0,55.2,17.8,56.2,73.1L2181.3,287.7z M2328.4,296.6c0-93.5-31.9-119.8-87.2-119.8
		c-47.7,0-91.4,19.6-91.4,114.7c0,90.8,37.8,114.6,95.7,114.6c26.3,0,51.4-5.1,73.5-19.6l-11.5-24.2c-20,11.9-39.6,17-62.1,17
		c-39.1,0-62.1-15.6-63.4-67l146.4-11.9V296.6z M254.3,0C116.3,0,4.3,111.9,4.3,250c0,138.1,111.9,250,250,250
		c138.1,0,250-111.9,250-250C504.3,111.9,392.4,0,254.3,0"/>
	<path fill-rule="evenodd" clip-rule="evenodd" fill="#2D2D42" d="M186.9,150.3h41.7l20.9,36.1l-20.9,36.1h-41.7L166,186.4
		L186.9,150.3z M228.6,402.9h-41.8L166,366.8l20.9-36.1h41.8l20.9,36.1L228.6,402.9z M228.6,312.7h-41.8L166,276.6l20.9-36.1h41.8
		l20.9,36.1L228.6,312.7z M309.4,267.6h-41.8l-20.9-36.1l20.9-36.1h41.8l20.9,36.1L309.4,267.6z M309.4,177.5h-41.8l-20.9-36.1
		l20.9-36.1h41.8l20.9,36.1L309.4,177.5L309.4,177.5z"/>
</g>
</svg>
