<?xml version="1.0" encoding="utf-8"?>
<!-- Generator: Adobe Illustrator 23.0.6, SVG Export Plug-In . SVG Version: 6.00 Build 0)  -->
<svg version="1.1" xmlns="http://www.w3.org/2000/svg" xmlns:xlink="http://www.w3.org/1999/xlink" x="0px" y="0px" width="50px"
	 height="50px" viewBox="0 0 50 50" enable-background="new 0 0 50 50" xml:space="preserve">
<g id="Слой_2">
	<circle fill-rule="evenodd" clip-rule="evenodd" fill="#D04B9B" cx="25" cy="25" r="25"/>
</g>
<g id="Слой_1">
	<g>
		<path fill-rule="evenodd" clip-rule="evenodd" fill="#2E2D42" d="M23.7,21.6H24l0.3-0.2l0.3,0.2h0.7l0.3-0.2l0.3,0.2h0.3l-0.6,4.2
			h-1.3C24.3,25.8,23.7,21.6,23.7,21.6z M24.9,14.4c2.7,0,4.9,2.2,4.9,4.9c0,0-0.1,2.4-2.1,5c-0.3,0.4-0.4,0.8-0.5,1.4h-0.5l0.8-5.4
			l-0.9-0.1l-0.1-0.1l-0.1,0.1l-0.1,0l0,0.1l-0.1,0.1L26,20.2h-0.7l-0.3,0.2l-0.3-0.2h-0.7l-0.3,0.2l-0.1-0.1l0-0.1l-0.1,0l-0.1-0.1
			l-0.1,0.1l-0.9,0.1l0.8,5.4h-0.5c-0.1-0.6-0.3-1.1-0.5-1.4c-2-2.6-2.1-5-2.1-5C20,16.6,22.2,14.4,24.9,14.4L24.9,14.4z M14.2,19.4
			h4.7c0,0.1,0,0.5,0.2,1.1c0.2,1.1,0.8,2.8,2.1,4.5c0.2,0.3,0.3,0.7,0.4,1.4l0,0.5h0.2v0.1h1v0.5h-1v1.1h6.3v-1.1h-4.2v-0.5h4.2
			v-0.1h0.1l0-0.5c0-0.6,0.2-1.1,0.4-1.4c1.4-1.7,1.9-3.4,2.1-4.5c0.1-0.6,0.2-1,0.2-1.1h4.7c0.1,0,0.2,0.1,0.2,0.2v14H14v-14
			C14,19.5,14.1,19.4,14.2,19.4L14.2,19.4z M39.4,35.3c-0.4,0.2-0.9,0.5-1.2,0.5H11.7c-0.3,0-0.9-0.3-1.2-0.5v-0.6h28.9
			C39.4,34.7,39.4,35.3,39.4,35.3z M37.1,19.6c0-0.7-0.6-1.3-1.3-1.3h-4.8c-0.5-2.8-3-5-5.9-5s-5.4,2.1-5.9,5h-4.8
			c-0.7,0-1.3,0.6-1.3,1.3v14H9.4v2.3L9.6,36c0.1,0.1,1.2,0.9,2.1,0.9h26.4c0.9,0,2-0.8,2.1-0.9l0.2-0.2v-2.3h-3.4L37.1,19.6
			L37.1,19.6z"/>
		<path fill-rule="evenodd" clip-rule="evenodd" fill="#FEFEFE" d="M22.9,30.3H27v-1.1h-4.1C22.9,29.1,22.9,30.3,22.9,30.3z
			 M15.1,32.5h19.7V20.5h-4c-0.2,1.1-0.8,2.8-2.1,4.5c-0.2,0.3-0.3,0.7-0.4,1.4l0,0.5h-0.1v0.1h-4.2v0.5h4.2v1.1h-6.3v-1.1h1v-0.5
			h-1v-0.1h-0.2l0-0.5c0-0.6-0.2-1.1-0.4-1.4c-1.3-1.7-1.9-3.4-2.1-4.5h-4C15.1,20.5,15.1,32.5,15.1,32.5z"/>
		<path fill-rule="evenodd" clip-rule="evenodd" fill="#2E2D42" d="M22.9,30.3H27v-1.1h-4.1V30.3z"/>
	</g>
</g>
</svg>
