<?xml version="1.0" encoding="utf-8"?>
<!-- Generator: Adobe Illustrator 23.0.6, SVG Export Plug-In . SVG Version: 6.00 Build 0)  -->
<svg version="1.1" id="Слой_1" xmlns="http://www.w3.org/2000/svg" xmlns:xlink="http://www.w3.org/1999/xlink" x="0px" y="0px"
	 width="661px" height="500px" viewBox="0 0 661 500" enable-background="new 0 0 661 500" xml:space="preserve">
<g>
	<path fill-rule="evenodd" clip-rule="evenodd" fill="#2E2D42" d="M304.5,175.3h6.2l6-5.2l6,5.2h15.5l6-5.2l6,5.2h6.3l-12.4,88.1
		h-27.2C316.9,263.4,304.5,175.3,304.5,175.3z M330.4,23.2c57.3,0.1,103.7,46.5,103.7,103.7c0,0.5-1.7,51.7-44,106.1
		c-5.6,7.4-9.4,17.6-11.4,30.3H368l16-113.8l-18.8-2.6l-1.2-1.5l-1.3,1.1l-2.2-0.3l-0.3,2.5l-2.2,1.9l-6-5.2h-15.5l-6,5.2l-6-5.2
		h-15.5l-6,5.2l-2.2-1.9l-0.3-2.5l-2.2,0.3l-1.2-1.1l-1.2,1.4l-18.8,2.6l16,113.9H282c-2-12.7-5.8-22.9-11.4-30.4
		c-42.2-54.3-43.8-105.5-43.8-106C226.7,69.7,273.2,23.3,330.4,23.2L330.4,23.2z M102.7,128h100.3c0.2,2.8,0.8,11.4,3.4,23.7
		c4.9,22.9,16.7,58.8,45.2,95.6c4.2,5.6,6.9,15.7,7.8,28.7l0.8,11.1h3.4v1.3h20.9v11.4h-20.8v23.7h133.5v-23.7h-88.9v-11.4h88.9
		v-1.3h3.1l0.8-11c1-12.9,3.8-23.2,7.9-28.6c28.6-36.9,40.5-72.8,45.3-95.7c2.6-12.3,3.3-20.8,3.4-23.7h100.3c2.7,0,4.9,2.2,4.9,4.8
		v296.6H97.9V132.9C97.9,130.2,100,128,102.7,128z M635.8,465.1c-7.4,4.8-18.9,10.8-26.2,10.8H51.2c-7.2,0-18.3-5.7-26.2-10.8v-11.9
		h610.8V465.1z M586.7,132.9c0-15.7-12.8-28.5-28.5-28.5H455.7C445,44.9,393-0.4,330.4-0.4c-62.5,0-114.6,45.3-125.3,104.8H102.7
		c-15.7,0-28.5,12.8-28.5,28.5v296.6H1.4v47.8l4.8,3.5c2.6,1.9,25.6,18.7,45.1,18.7h558.4c19.5,0,42.6-16.8,45.1-18.7l4.8-3.5v-47.8
		h-72.9C586.7,429.5,586.7,132.9,586.7,132.9z"/>
	<path fill-rule="evenodd" clip-rule="evenodd" fill="#FEFEFE" d="M286.8,358.7h87.3V335h-87.3V358.7L286.8,358.7z M121.6,406.9
		h417.7V151.7h-84.9c-4.9,22.9-16.7,58.9-45.3,95.8c-4.1,5.4-6.9,15.7-7.9,28.6l-0.8,11h-3.1v1.3h-88.9v11.4h88.9v23.7H263.7v-23.7
		h20.9v-11.4h-20.9v-1.3h-3.4l-0.8-11.1c-0.9-12.9-3.6-23.1-7.8-28.7c-28.6-36.7-40.3-72.7-45.2-95.6h-84.9
		C121.6,151.7,121.6,406.9,121.6,406.9z"/>
	<path fill-rule="evenodd" clip-rule="evenodd" fill="#2E2D42" d="M286.8,358.7h87.3V335h-87.3L286.8,358.7z"/>
</g>
</svg>
