<?xml version="1.0" encoding="utf-8"?>
<!-- Generator: Adobe Illustrator 23.0.6, SVG Export Plug-In . SVG Version: 6.00 Build 0)  -->
<svg version="1.1" id="Слой_1" xmlns="http://www.w3.org/2000/svg" xmlns:xlink="http://www.w3.org/1999/xlink" x="0px" y="0px"
	 width="200px" height="500px" viewBox="0 0 200 500" enable-background="new 0 0 200 500" xml:space="preserve">
<g>
	<polygon fill="#2E2E41" points="182.9,405.3 145.7,389.5 152.1,374.3 175.8,384.3 185.9,366.7 121.7,181.7 137.3,176.3 
		203.9,368.4 	"/>
	<path fill-rule="evenodd" clip-rule="evenodd" fill="#FFFFFF" d="M10.9,21.6c-14.6,10.8,3.9,47.8,15.5,67.8
		c23.2-3.7,46.7-3.9,70-0.7C108,68.7,126,32.3,111.5,21.6C111.5,21.6,68.9-7.9,10.9,21.6"/>
	<path fill="#2E2E41" d="M22.1,98.5l-2.8-4.9C-4.5,52.6-9,26.1,6,15l1.2-0.7c61.7-31.4,107.2-0.7,109.1,0.6
		C131.3,26,127,52.2,103.5,93l-2.8,4.8L95.2,97c-22.5-3.1-45.2-2.9-67.5,0.6L22.1,98.5z M15.5,28.6c-3.7,3.7-2.3,20.1,15.4,51.9
		c20.3-2.8,40.8-2.9,61.1-0.6c17.9-32.5,18.7-48.6,14.7-51.7C105.3,27.4,67.6,2.5,15.5,28.6z"/>
	<path fill-rule="evenodd" clip-rule="evenodd" fill="#FFFFFF" d="M34,123.5L4.6,430.3l58.4,58l54.8-58L88.4,122.9"/>
	<polygon fill="#2E2E41" points="63.2,500.2 -4,433.4 25.8,122.7 42.2,124.3 13.2,427.2 62.8,476.5 109.2,427.4 80.2,123.7 
		96.6,122.2 126.4,433.3 	"/>
</g>
</svg>
