<?xml version="1.0" encoding="utf-8"?>
<!-- Generator: Adobe Illustrator 23.0.6, SVG Export Plug-In . SVG Version: 6.00 Build 0)  -->
<svg version="1.1" id="Слой_1" xmlns="http://www.w3.org/2000/svg" xmlns:xlink="http://www.w3.org/1999/xlink" x="0px" y="0px"
	 width="500px" height="500px" viewBox="0 0 500 500" style="enable-background:new 0 0 500 500;" xml:space="preserve">
<style type="text/css">
	.st0{fill-rule:evenodd;clip-rule:evenodd;fill:#FFFFFF;}
</style>
<path class="st0" d="M500,250c0,138.1-111.9,250-250,250S0,388.1,0,250S111.9,0,250,0S500,111.9,500,250z M250,116.7
	c-36.2,0-40.8,0.2-55,0.8c-14.2,0.7-23.9,2.9-32.4,6.2c-8.9,3.3-17,8.6-23.6,15.4c-6.8,6.7-12,14.7-15.4,23.6
	c-3.3,8.5-5.6,18.2-6.2,32.4c-0.6,14.2-0.8,18.7-0.8,55s0.2,40.8,0.8,55c0.7,14.2,2.9,23.9,6.2,32.4c3.4,8.8,8,16.2,15.4,23.6
	c7.4,7.4,14.8,12,23.6,15.4c8.5,3.3,18.2,5.5,32.4,6.2c14.2,0.6,18.8,0.8,55,0.8s40.7-0.2,55-0.8c14.2-0.7,23.9-2.9,32.4-6.2
	c8.9-3.3,17-8.6,23.6-15.4c7.4-7.4,12-14.9,15.4-23.6c3.3-8.5,5.5-18.2,6.2-32.4c0.6-14.2,0.8-18.8,0.8-55s-0.2-40.8-0.8-55
	c-0.7-14.2-2.9-23.9-6.2-32.3c-3.3-8.9-8.6-17-15.4-23.6c-6.7-6.8-14.7-12-23.6-15.4c-8.5-3.3-18.2-5.6-32.4-6.2
	C290.7,116.8,286.2,116.7,250,116.7L250,116.7L250,116.7z M238.1,140.7h12c35.6,0,39.8,0.1,53.9,0.8c13,0.6,20.1,2.8,24.8,4.6
	c6.2,2.4,10.7,5.3,15.3,10c4.7,4.7,7.5,9.1,10,15.3c1.8,4.7,4,11.8,4.6,24.8c0.6,14.1,0.8,18.3,0.8,53.9s-0.1,39.8-0.8,53.9
	c-0.6,13-2.8,20-4.6,24.8c-2.4,6.2-5.3,10.6-10,15.3c-4.7,4.7-9.1,7.5-15.3,10c-4.7,1.8-11.8,4-24.8,4.6
	c-14.1,0.6-18.3,0.8-53.9,0.8s-39.8-0.1-53.9-0.8c-13-0.6-20.1-2.8-24.8-4.6c-5.8-2.1-11-5.5-15.3-10c-4.4-4.3-7.9-9.5-10-15.3
	c-1.8-4.7-4-11.8-4.6-24.8c-0.6-14.1-0.8-18.3-0.8-53.9c0-35.6,0.1-39.8,0.8-53.9c0.6-13,2.8-20.1,4.6-24.8
	c2.4-6.2,5.3-10.7,10-15.3c4.7-4.7,9.1-7.6,15.3-10c4.7-1.8,11.8-4,24.8-4.6C208.4,140.9,213.2,140.7,238.1,140.7L238.1,140.7z
	 M321.2,162.8c-8.8,0-16,7.2-16,16c0,8.8,7.2,16,16,16c8.8,0,16-7.2,16-16C337.2,170,330,162.8,321.2,162.8z M250,181.5
	c-37.8-0.6-69,29.6-69.5,67.4c-0.6,37.8,29.6,69,67.4,69.5c0.7,0,1.4,0,2.1,0c37.8-0.6,68-31.7,67.4-69.5
	C316.8,212,287,182.1,250,181.5z M250,205.6c24.5,0,44.5,19.9,44.5,44.4c0,24.5-19.9,44.5-44.4,44.5c0,0,0,0,0,0
	c-24.5,0-44.4-19.9-44.4-44.5C205.6,225.4,225.5,205.6,250,205.6z"/>
</svg>
