<?xml version="1.0" encoding="utf-8"?>
<!-- Generator: Adobe Illustrator 23.0.6, SVG Export Plug-In . SVG Version: 6.00 Build 0)  -->
<svg version="1.1" id="Слой_1" xmlns="http://www.w3.org/2000/svg" xmlns:xlink="http://www.w3.org/1999/xlink" x="0px" y="0px"
	 width="40px" height="40px" viewBox="0 0 40 40" enable-background="new 0 0 40 40" xml:space="preserve">
<g>
	<path fill-rule="evenodd" clip-rule="evenodd" fill="#64CAE1" d="M20,0C9,0,0,9,0,20s9,20,20,20s20-9,20-20S31,0,20,0"/>
	<path fill-rule="evenodd" clip-rule="evenodd" fill="#2D2D42" d="M14.6,12h3.3l1.7,2.9l-1.7,2.9h-3.3l-1.7-2.9
		C12.9,14.9,14.6,12,14.6,12z M17.9,32.2h-3.3l-1.7-2.9l1.7-2.9h3.3l1.7,2.9L17.9,32.2L17.9,32.2z M17.9,25h-3.3l-1.7-2.9l1.7-2.9
		h3.3l1.7,2.9L17.9,25L17.9,25z M24.4,21.4h-3.3l-1.7-2.9l1.7-2.9h3.3l1.7,2.9L24.4,21.4L24.4,21.4z M24.4,14.2h-3.3l-1.7-2.9
		l1.7-2.9h3.3l1.7,2.9L24.4,14.2L24.4,14.2z"/>
</g>
</svg>
