<?xml version="1.0" encoding="utf-8"?>
<!-- Generator: Adobe Illustrator 23.0.6, SVG Export Plug-In . SVG Version: 6.00 Build 0)  -->
<svg version="1.1" xmlns="http://www.w3.org/2000/svg" xmlns:xlink="http://www.w3.org/1999/xlink" x="0px" y="0px" width="50px"
	 height="50px" viewBox="0 0 50 50" enable-background="new 0 0 50 50" xml:space="preserve">
<g id="Слой_2">
	<circle fill-rule="evenodd" clip-rule="evenodd" fill="#63C9E0" cx="25" cy="25" r="25"/>
</g>
<g id="Слой_1">
	<g>
		<path fill-rule="evenodd" clip-rule="evenodd" fill="#2E2D42" d="M27.4,38.1c0,0.1,0.1,0.2,0.1,0.3h-5.1c0-0.1,0.1-0.2,0.1-0.3
			c0.1-0.4,0.1-1,0.1-1.6c0-0.1,0-0.2,0-0.3h4.8l0,0.4C27.3,37.1,27.3,37.7,27.4,38.1L27.4,38.1z M37.6,35H12.5
			c-0.1,0-0.3-0.2-0.3-0.3V33h25.5v1.7C37.7,34.9,37.6,35,37.6,35z M38.8,31.8v-15c0-0.7-0.6-1.3-1.3-1.3h-3.8v-1h-1.1v15.7h1.1
			V16.7h3.8c0.1,0,0.2,0.1,0.2,0.2v15H12.1v-15c0-0.1,0.1-0.2,0.2-0.2h3.8v13.6h1.1v-19h12.1v-1.1H16.1v5.4h-3.8
			c-0.7,0-1.3,0.6-1.3,1.3V33h0v1.7c0,0.8,0.7,1.5,1.4,1.5h8.9l0,0.4c0,0.2,0,0.5,0,0.7c0,0.3,0,0.5-0.1,0.7c0,0.2-0.1,0.2-0.1,0.3
			c0,0-0.1,0-0.1,0.1l0,0c-0.1,0.1-0.3,0.1-0.4,0.2H20v1.1h8.9c0,0,0,0,0,0l0,0h1v-1.1h-0.8c-0.2-0.1-0.3-0.1-0.4-0.2
			c0,0-0.1,0-0.1-0.1c0-0.1-0.1-0.2-0.1-0.3c0-0.2,0-0.4-0.1-0.7c0-0.2,0-0.5,0-0.7c0-0.1,0-0.3,0-0.4h9.1c0.8,0,1.3-0.7,1.3-1.4
			L38.8,31.8L38.8,31.8L38.8,31.8z"/>
		<path fill-rule="evenodd" clip-rule="evenodd" fill="#FEFEFE" d="M13.7,30.3h2.4V18.2h-2.4L13.7,30.3z M33.7,30.3h2.4V18.2h-2.4
			V30.3z M29.4,14.6h4.4l-4.4-4.4v1.1V14.6z"/>
		<path fill-rule="evenodd" clip-rule="evenodd" fill="#2E2D42" d="M30.1,16.7v-1.1h-7.9v1.1L30.1,16.7z M22.1,18.4h7.9v-1.1h-7.9
			V18.4z M19.2,16.6l-0.6,0.9l1.2,0.8l1.5-1.9L21,16.1l-0.5-0.4l-0.3,0.4l-0.6,0.7L19.2,16.6z M22.1,21.9h7.9v-1.1h-7.9V21.9z
			 M22.1,23.7h7.9v-1.1h-7.9V23.7z M21.4,21.7L20.5,21l-0.9,1.1l-0.4-0.2l-0.6,1l1.2,0.8L21.4,21.7z M22.1,27.2h7.9v-1.1h-7.9V27.2z
			 M22.1,29h7.9v-1.1h-7.9V29z M21.4,26.9l-0.9-0.7l-0.9,1.1l-0.4-0.2l-0.6,1l1.2,0.8L21.4,26.9z"/>
	</g>
</g>
</svg>
