<?xml version="1.0" encoding="utf-8"?>
<!-- Generator: Adobe Illustrator 23.0.6, SVG Export Plug-In . SVG Version: 6.00 Build 0)  -->
<svg version="1.1" id="Слой_1" xmlns="http://www.w3.org/2000/svg" xmlns:xlink="http://www.w3.org/1999/xlink" x="0px" y="0px"
	 width="500px" height="500px" viewBox="0 0 500 500" style="enable-background:new 0 0 500 500;" xml:space="preserve">
<style type="text/css">
	.st0{fill-rule:evenodd;clip-rule:evenodd;fill:#FFFFFF;}
</style>
<path class="st0" d="M500,250c0,138.1-111.9,250-250,250S0,388.1,0,250S111.9,0,250,0S500,111.9,500,250z M383.3,260.6
	c0-48.3-26.4-70.8-61.7-70.8c-28.5,0-41.2,15.3-48.3,26v0.5H273c0.1-0.2,0.2-0.3,0.3-0.5v-22.3h-53.6c0.7,14.8,0,157.5,0,157.5h53.6
	V263c0-4.7,0.4-9.4,1.8-12.8c3.9-9.4,12.7-19.2,27.5-19.2c19.4,0,27.1,14.4,27.1,35.6v84.2h53.6
	C383.3,350.9,383.3,260.6,383.3,260.6z M163.7,117.6c-18.3,0-30.3,11.8-30.3,27.2c0,15.1,11.6,27.2,29.6,27.2h0.3
	c18.7,0,30.3-12.1,30.3-27.2C193.3,129.3,182,117.6,163.7,117.6z M136.5,350.9h53.6V193.4h-53.6L136.5,350.9L136.5,350.9z"/>
</svg>
